<svg viewBox="0 0 114 35" xmlns="http://www.w3.org/2000/svg" xmlns:xlink="http://www.w3.org/1999/xlink"><style>:root&gt;svg{display:none}:root&gt;svg:target{display:block}</style><svg fill="none" viewBox="0 0 42 14" id="arrow" xmlns="http://www.w3.org/2000/svg"><path fill-rule="evenodd" clip-rule="evenodd" d="M6.638 13.276L0 6.638 6.638 0l.948.948-5.69 5.69 5.69 5.69-.948.948z" fill="#fff"/><path fill-rule="evenodd" clip-rule="evenodd" d="M.948 5.968h40.508v1.34H.948v-1.34z" fill="#fff"/></svg><svg fill="none" viewBox="0 0 8 14" id="arrow-small" xmlns="http://www.w3.org/2000/svg"><path fill-rule="evenodd" clip-rule="evenodd" d="M6.566 12.478L1.086 7l5.48-5.479.782.782L2.65 7l4.697 4.696-.782.782z" fill="#fff" stroke="#fff" stroke-width=".75"/></svg><svg fill="none" viewBox="0 0 114 29" id="camera" xmlns="http://www.w3.org/2000/svg"><rect y="13.812" width="32" height="1.543" rx=".772" fill="#E3B873"/><rect x="82.001" y="13.812" width="32" height="1.543" rx=".772" fill="#E3B873"/><path d="M73.851 9.766L49.731.829a.595.595 0 00-.766.353l-2.67 7.269a.596.596 0 00.353.764l2.797 1.027-.616 1.678a.596.596 0 00.353.765l5.593 2.053-.41 1.119a2.354 2.354 0 00.848 2.746v3.04h-8.016a2.987 2.987 0 00-2.13-1.727v-1.251a.596.596 0 00-.596-.596H42.07a.596.596 0 00-.595.596v9.532c0 .329.266.595.595.595h2.402c.33 0 .596-.266.596-.596v-1.25a2.987 2.987 0 002.13-1.728h8.016v.596a1.787 1.787 0 103.575 0v-6.6a2.36 2.36 0 001.168-1.302l.411-1.119L65.4 18.64a.593.593 0 00.765-.354l.223-.608a3.571 3.571 0 003.92-4.97l3.611-1.855a.596.596 0 00-.065-1.09l-.003.003zm-17.446 9.38l.493.179c.224.08.46.127.698.137v2.181h-1.191v-2.497zm-12.53 8.455h-1.21v-8.34h1.21v8.34zm2.384-3.575a1.791 1.791 0 01-1.192 1.686V21.15a1.79 1.79 0 011.192 1.685v1.191zm1.21-1.191h10.127v1.191H47.47v-1.191zM57 26.409a.596.596 0 01-.596-.595v-.596h1.191v.596a.596.596 0 01-.595.595zm2.248-10.026l-.411 1.119a1.192 1.192 0 01-1.529.707l-1.12-.41a1.192 1.192 0 01-.708-1.53l.41-1.118 3.02 1.109.338.123zm6.003.935l-15.1-5.544.412-1.12 8.947 3.287a.6.6 0 00.614-.126l1.672-1.574 4.687 1.722-1.232 3.355zm4.028-2.328a2.392 2.392 0 01-2.473 1.55l.92-2.508 1.504-.775c.235.55.253 1.17.05 1.733zm-2.01-2.06a.534.534 0 00-.094.017l-5.312-1.95a.596.596 0 00-.614.124l-1.673 1.574-11.958-4.39 2.258-6.15 22.29 8.258-4.898 2.517z" fill="#E3B873"/><path d="M53.13 8.703l-.526 1.42m2.815-.58l-.525 1.42m2.747-.593l-.526 1.42" stroke="#E3B873" stroke-linecap="round"/></svg><svg fill="none" viewBox="0 0 10 8" id="check" xmlns="http://www.w3.org/2000/svg"><path d="M9.037.687L3.325 6.4.729 3.803" stroke="#fff" stroke-width="1.5"/></svg><svg fill="none" viewBox="0 0 114 30" id="clients" xmlns="http://www.w3.org/2000/svg"><rect x=".001" y="14" width="32" height="1.543" rx=".772" fill="#E3B873"/><rect x="82.001" y="14" width="32" height="1.543" rx=".772" fill="#E3B873"/><path d="M62.426 9.56l-4.845-1.454a3.426 3.426 0 00-1.108-.133v-.012h-5.89L40.14 4.49l.031 14.674 2.998 1.499 1.775-4.34 2.593 1.038.673-1.68.974.973-.909.909a1.695 1.695 0 001.14 2.89 1.693 1.693 0 001.63 1.63 1.693 1.693 0 001.63 1.63 1.695 1.695 0 001.69 1.636c.446 0 .883-.181 1.199-.497l.909-.909.365.365a1.694 1.694 0 002.889-1.139 1.693 1.693 0 001.63-1.63 1.693 1.693 0 001.63-1.63 1.695 1.695 0 001.637-1.69c0-.077-.013-.154-.023-.23l.78-.78.63 1.26 3.413-1.706 2.063 3.938 2.374-1.583V5.075L62.426 9.56zm-19.82 9.607l-1.349-.675-.027-12.494 5.954 1.979-4.578 11.19zm4.326-3.218l-1.577-.63 2.863-6.999 1.558.518-2.844 7.11zm1.933 2.814c0-.16.064-.317.178-.431l.956-.955a.61.61 0 01.862.862l-.956.955a.61.61 0 01-1.04-.43zm1.63 1.63c0-.16.065-.317.178-.43l.956-.956a.61.61 0 01.862.862l-.956.955a.61.61 0 01-1.04-.43zm1.63 1.63c0-.16.065-.317.178-.43l.956-.956a.61.61 0 01.862.862l-.956.956a.61.61 0 01-1.04-.43zm3.626 1.106l-.955.956a.61.61 0 01-.862-.862l.955-.956a.61.61 0 01.862.862zm7.177-4.3a.613.613 0 01-.431-.178l-4.553-4.554-.769.769 4.553 4.553a.61.61 0 01-.862.862l-4.553-4.554-.768.769 4.553 4.553a.61.61 0 01-.862.862l-4.553-4.553-.768.768 4.553 4.553a.61.61 0 01-.862.862l-.613-.613c.011-.076.023-.152.023-.23 0-.914-.73-1.657-1.636-1.69a1.692 1.692 0 00-1.63-1.63 1.692 1.692 0 00-1.63-1.63 1.695 1.695 0 00-1.69-1.636c-.078 0-.154.012-.23.023l-1.552-1.552 2.215-5.535h3.211l-1.995 1.995a1.698 1.698 0 002.398 2.398l1.44-1.44a.836.836 0 011.12-.023l1.27 1.164c.422.387.891.709 1.393.96l3.658 3.687a.61.61 0 01-.43 1.04zm1.152-1.855l-2.233-2.251c.2.019.4.03.603.03v-1.087a5.031 5.031 0 01-3.408-1.325l-1.27-1.164c-.718-.659-1.935-.633-2.623.057l-1.44 1.44a.61.61 0 01-.863-.862l2.072-2.072a2.38 2.38 0 012.35-.592l4.8 1.44 2.8 5.598-.788.788zm2.417.039l-3.295-6.59 2.406-.944 3.312 6.322-2.423 1.212zm6.278 1.525l-.886.59L66.626 9.08l6.149-2.411v11.87z" fill="#E3B873"/><circle cx="59.667" cy="1.701" r=".486" fill="#E3B873"/><circle cx="47.41" cy="24.631" r=".486" fill="#E3B873"/><circle cx="49.468" cy="26.319" r=".486" fill="#E3B873"/><circle cx="51.817" cy="27.558" r=".486" fill="#E3B873"/><circle cx="54.365" cy="28.35" r=".486" fill="#E3B873"/><circle cx="62.214" cy="2.474" r=".486" fill="#E3B873"/><circle cx="64.563" cy="3.729" r=".486" fill="#E3B873"/><path d="M66.83 3.027v2.802h-2.833M45.01 24.314v-2.267h2.264" stroke="#E3B873" stroke-linecap="round" stroke-linejoin="round"/><path d="M47.8 5.01c1.536-1.336 2.512-1.95 4.352-2.669 1.951-.762 3.272-.94 5.392-.94m10.861 21.097c-1.142 1.78-3.267 3.519-4.996 4.473-1.834 1.013-3.799 1.583-6.416 1.72" stroke="#E3B873" stroke-linecap="round"/></svg><svg fill="none" viewBox="0 0 34 32" id="days" xmlns="http://www.w3.org/2000/svg"><path d="M24.6 2.2C24.337.946 23.196 0 21.831 0a.558.558 0 00-.565.55c0 .304.253.55.565.55.935 0 1.696.74 1.696 1.65 0 .91-.76 1.65-1.696 1.65a.558.558 0 00-.565.55c0 .303.253.55.565.55 1.365 0 2.506-.947 2.77-2.2h7.404v4.949H1.485v-4.95h9.608a.558.558 0 00.565-.55.558.558 0 00-.565-.55h-1.027a1.69 1.69 0 011.592-1.1c.935 0 1.695.741 1.695 1.65 0 .91-.76 1.65-1.695 1.65a.558.558 0 00-.565.55c0 .304.253.55.565.55 1.558 0 2.826-1.233 2.826-2.75C14.484 1.234 13.216 0 11.658 0c-1.364 0-2.506.946-2.769 2.2H.354v29.145h32.781V2.2H24.6zm7.405 28.045H1.485V9.35h30.52v20.896z" fill="#fff"/><path d="M15.049 1.1c.935 0 1.696.74 1.696 1.65 0 .91-.761 1.65-1.696 1.65a.558.558 0 00-.565.55c0 .303.253.55.565.55 1.558 0 2.826-1.234 2.826-2.75 0-1.517-1.268-2.75-2.826-2.75a.558.558 0 00-.565.55c0 .304.253.55.565.55zm3.391 0c.935 0 1.696.74 1.696 1.65 0 .91-.761 1.65-1.696 1.65a.558.558 0 00-.565.55c0 .303.253.55.565.55 1.558 0 2.826-1.234 2.826-2.75 0-1.517-1.268-2.75-2.826-2.75a.558.558 0 00-.565.55c0 .304.253.55.565.55zm-13 12.648h12.435a.558.558 0 00.565-.55.558.558 0 00-.565-.55H5.441a.558.558 0 00-.565.55c0 .304.253.55.565.55zm22.609 7.699H19.57a.558.558 0 00-.566.55c0 .304.254.55.566.55h8.477a.558.558 0 00.566-.55.558.558 0 00-.566-.55zm-22.609-3.3h5.653a.558.558 0 00.565-.55.558.558 0 00-.565-.55H5.44a.558.558 0 00-.565.55c0 .304.253.55.565.55zm22.609 7.699h-5.652a.558.558 0 00-.566.55c0 .304.254.55.566.55h5.652a.558.558 0 00.565-.55.558.558 0 00-.566-.55zM16.18 17.597c0 .304.253.55.565.55h8.477a.558.558 0 00.566-.55.558.558 0 00-.566-.55h-8.477a.558.558 0 00-.566.55zm-1.86.391a.57.57 0 00.164-.39.568.568 0 00-.164-.39.604.604 0 00-.803 0 .568.568 0 00-.163.39.57.57 0 00.163.39.58.58 0 00.803 0zm-6.618 4.009c0 .304.253.55.565.55h8.478a.558.558 0 00.565-.55.558.558 0 00-.565-.55H8.267a.558.558 0 00-.565.55zm-2.262.55c.148 0 .295-.06.402-.16a.57.57 0 00.164-.39.545.545 0 00-.164-.385.598.598 0 00-.802-.005.568.568 0 00-.164.39.57.57 0 00.164.39c.107.1.248.16.4.16zm22.609-4.399a.58.58 0 00.4-.16.546.546 0 000-.78.604.604 0 00-.802 0 .568.568 0 00-.164.39.57.57 0 00.164.39.58.58 0 00.402.16zm-8.479 7.698H5.44a.558.558 0 00-.564.55c0 .304.253.55.565.55h14.13a.558.558 0 00.565-.55.558.558 0 00-.565-.55z" fill="#fff"/></svg><svg fill="none" viewBox="0 0 28 29" id="email" xmlns="http://www.w3.org/2000/svg"><circle cx="14" cy="14.322" r="14" fill="#E3B873"/><path d="M8.4 9.122h11.2c.77 0 1.4.63 1.4 1.4v8.4c0 .77-.63 1.4-1.4 1.4H8.4c-.77 0-1.4-.63-1.4-1.4v-8.4c0-.77.63-1.4 1.4-1.4z" stroke="#fff" stroke-width="1.5" stroke-linecap="round" stroke-linejoin="round"/><path d="M21 10.522l-7 4.9-7-4.9" stroke="#fff" stroke-width="1.5" stroke-linecap="round" stroke-linejoin="round"/></svg><svg fill="none" viewBox="0 0 28 29" id="instagram" xmlns="http://www.w3.org/2000/svg"><circle cx="14" cy="14.322" r="14" fill="#E3B873"/><path d="M17 8.721h-6a3 3 0 00-3 3v6a3 3 0 003 3h6a3 3 0 003-3v-6a3 3 0 00-3-3z" stroke="#fff" stroke-width="1.5"/><path d="M16.4 14.343a2.4 2.4 0 11-4.747.705 2.4 2.4 0 014.747-.705z" stroke="#fff" stroke-width="1.5" stroke-linecap="round" stroke-linejoin="round"/></svg><svg fill="none" viewBox="0 0 33 33" id="meterc" xmlns="http://www.w3.org/2000/svg"><path fill-rule="evenodd" clip-rule="evenodd" d="M3.25 1.382A.39.39 0 013.648 1h28.664a.39.39 0 01.398.382v27.622a.39.39 0 01-.398.382.39.39 0 01-.399-.382V1.764H3.648a.39.39 0 01-.398-.382z" fill="#fff" stroke="#fff" stroke-width=".5" stroke-linecap="round" stroke-linejoin="round"/><path d="M3.668 29.562h.125V5.68L5.42 7.304a.52.52 0 10.735-.735L3.641 4.056a.52.52 0 00-.736 0L.392 6.569a.52.52 0 10.735.735L2.753 5.68v23.883h.915z" fill="#fff" stroke="#fff" stroke-width=".25"/><path d="M2.752 29.831v.125H26.76l-1.634 1.626a.518.518 0 000 .736.524.524 0 00.738 0l2.527-2.514a.519.519 0 000-.735l-2.527-2.514a.523.523 0 00-.738 0 .518.518 0 000 .736l1.634 1.625H2.752v.915z" fill="#fff" stroke="#fff" stroke-width=".25"/><path fill-rule="evenodd" clip-rule="evenodd" d="M14.162 1.116a.395.395 0 010 .558l-4.74 4.74a.395.395 0 11-.558-.559l4.74-4.74a.395.395 0 01.558 0zm18.3 18.826a.395.395 0 010 .559l-4.344 4.344a.395.395 0 11-.559-.558l4.345-4.345a.395.395 0 01.558 0zM20.085 1.114a.395.395 0 01.004.558L9.819 12.073a.395.395 0 01-.561-.555l10.268-10.4a.395.395 0 01.56-.004zM32.594 13.36a.395.395 0 010 .558L22.588 23.923a.395.395 0 01-.558-.558l10.005-10.006a.395.395 0 01.559 0zM26.408 1.25a.395.395 0 01-.004.558L9.947 18.001a.395.395 0 11-.554-.563L25.85 1.245a.395.395 0 01.558.005zm6.186 5.922a.395.395 0 010 .558L16.006 24.318a.395.395 0 11-.559-.558L32.035 7.172a.395.395 0 01.559 0zm-.264-5.925a.395.395 0 010 .559L9.687 24.45a.395.395 0 11-.558-.558L31.772 1.247a.395.395 0 01.559 0z" fill="#fff" stroke="#fff" stroke-width=".5" stroke-linecap="round" stroke-linejoin="round"/></svg><svg fill="none" viewBox="0 0 41 35" id="pig" xmlns="http://www.w3.org/2000/svg"><path d="M20.84 24.72a.68.68 0 00-.687.672v1.324a.68.68 0 00.687.671.678.678 0 00.686-.67v-1.325a.68.68 0 00-.686-.671z" fill="#fff" stroke="#fff" stroke-width=".1"/><path d="M37.558 15.443h0a13.125 13.125 0 00-2.926-5.883 13.654 13.654 0 00-5.22-3.716c-.33-1.336-1.02-2.714-2.373-3.751C25.72 1.083 24.393.888 24.334.88h0a.699.699 0 00-.547.157.664.664 0 00-.237.507v3.304h-2.225c-.589-1.914-2.41-3.312-4.562-3.312-2.198 0-4.053 1.46-4.6 3.439a13.676 13.676 0 00-8.194 4.23l.033.03-.033-.03a13.044 13.044 0 00-3.519 8.9c0 7.39 3.934 13.4 5.14 15.065a2.06 2.06 0 001.668.841H9.97c1.127 0 2.046-.894 2.046-1.995v-.802c.67.098 1.35.148 2.03.148h6.108v.654c0 1.101.919 1.995 2.046 1.995h2.977c.958 0 1.8-.662 2-1.577l.32-1.456c4.177-1.002 7.536-3.859 9.2-7.565h2.488c.752 0 1.366-.597 1.366-1.334V16.78a1.31 1.31 0 00-.4-.944 1.375 1.375 0 00-.966-.39h0-1.625v-.003zm1.618 6.586h0v.042h-1.965c.336-1.044.543-2.14.603-3.269a.677.677 0 00-.65-.705.681.681 0 00-.722.635c-.267 5.023-3.756 9.317-8.62 10.767l.872-3.966a.671.671 0 00-.528-.798.687.687 0 00-.816.516l-1.517 6.901a.672.672 0 01-.656.517h-2.979a.664.664 0 01-.671-.653v-2.65a.68.68 0 00-.687-.671.678.678 0 00-.687.67v.655h-6.107c-.682 0-1.363-.056-2.031-.165V25.39a.679.679 0 00-.687-.67.68.68 0 00-.687.67v6.625c0 .359-.3.654-.672.654H7.26a.665.665 0 01-.548-.274h0c-1.147-1.586-4.887-7.3-4.887-14.291 0-2.964 1.123-5.804 3.162-7.998a12.286 12.286 0 017.018-3.75c.015.387.08.77.191 1.14h-.188a.68.68 0 00-.687.671.68.68 0 00.687.671h9.512a.68.68 0 00.687-.67.68.68 0 00-.687-.672h-.188c.128-.422.195-.863.196-1.307h2.023v1.316a.68.68 0 00.687.671.68.68 0 00.687-.671V2.432c.594.23 1.419.678 2.105 1.533.711.888 1.277 2.217 1.277 4.204a.68.68 0 00.687.67.68.68 0 00.687-.67c0-.238-.008-.488-.026-.746a12.265 12.265 0 013.929 3.004 11.793 11.793 0 012.629 5.284c.13.625.693 1.078 1.337 1.078h1.627v5.24zM16.763 2.878c1.87 0 3.39 1.483 3.39 3.303 0 .455-.098.903-.282 1.317h-6.215a3.236 3.236 0 01-.282-1.317c0-1.82 1.52-3.303 3.39-3.303z" fill="#fff" stroke="#fff" stroke-width=".1"/><path d="M28.412 15.883h0c.403-1.055 1.469-1.761 2.65-1.761 1.181 0 2.247.706 2.65 1.76h-5.3zm0 0a.667.667 0 00.404.864m-.404-.864l.404.864m0 0a.692.692 0 00.883-.395l-.884.395zm.883-.395c.202-.53.749-.888 1.363-.888s1.161.359 1.363.888a.687.687 0 00.884.395s0 0 0 0l-.017-.047-3.593-.348zm-9.987 2.166c-.652-.442-1.492-.712-2.262-.925v-3.079c.595.078 1.098.25 1.455.463.37.221.568.477.568.706a.68.68 0 00.687.671.68.68 0 00.687-.671c0-.656-.374-1.242-.988-1.685-.605-.436-1.446-.737-2.409-.835v-.026a.68.68 0 00-.687-.671.68.68 0 00-.687.67v.027c-.962.098-1.804.399-2.408.835-.615.443-.989 1.03-.989 1.685 0 .927.472 1.558 1.136 2.009.651.442 1.491.712 2.261.925v3.078c-.595-.077-1.098-.249-1.454-.462-.371-.221-.569-.478-.569-.706a.68.68 0 00-.687-.671.68.68 0 00-.687.67c0 .657.374 1.243.989 1.686.604.436 1.446.737 2.408.835v.026a.68.68 0 00.687.671.68.68 0 00.687-.67v-.027c.963-.098 1.804-.399 2.409-.835.614-.443.988-1.03.988-1.685 0-.928-.471-1.559-1.135-2.009zm-3.636-4.004v2.697c-.747-.233-1.251-.454-1.57-.695-.323-.246-.453-.51-.453-.833 0-.229.198-.485.569-.707.356-.212.86-.385 1.454-.462zm2.829 6.72c-.357.212-.86.384-1.455.462v-2.697c.748.233 1.252.454 1.57.695.324.246.453.51.453.833 0 .228-.197.485-.568.706z" fill="#fff" stroke="#fff" stroke-width=".1"/></svg><svg fill="none" viewBox="0 0 114 28" id="repair" xmlns="http://www.w3.org/2000/svg"><rect x=".001" y="13" width="32" height="1.543" rx=".772" fill="#E3B873"/><rect x="82.001" y="13" width="32" height="1.543" rx=".772" fill="#E3B873"/><path d="M67.406 21.143a3.688 3.688 0 00-1.931-.665c-2.555-1.673-4.229-2.929-5.206-3.906l-3.002-3.001 1.822-2.04c.345.196.716.324 1.087.377.28.047.466.047.653.047.373 0 .466 0 .84.326a.752.752 0 00-.28.606c0 .234.093.514.28.7L63.3 15.22c.233.28.606.42.98.42.373 0 .746-.14.979-.467l3.312-3.312c.28-.233.42-.606.42-.98 0-.372-.14-.699-.42-.979L66.939 8.27a.921.921 0 00-.653-.28c-.233 0-.466.14-.653.28-.373-.327-.373-.42-.373-.793 0-.187 0-.42-.093-.7a3.265 3.265 0 00-.933-1.819l-1.68-1.68c-.979-.979-1.445-1.445-2.705-2.005-2.705-1.26-5.457-1.026-9.468.793-.233.094-.327.28-.28.513a.454.454 0 00.466.374h.607c2.052 0 3.125 0 4.99 1.865.817.817.841 2.07.109 2.991a.427.427 0 00-.248.134l-2.072 2.313-1.567-1.566c-1.721-1.722-2.932-3.35-3.864-5.164a3.694 3.694 0 00-1.08-2.44C46.65.295 45.53-.078 44.41.015c-.14.047-.28.14-.326.233a.424.424 0 000 .467l1.306 2.332c-.28.606-.933.98-1.586.933l-1.353-2.24c-.046-.14-.233-.232-.373-.232-.14-.047-.28.046-.373.186a3.674 3.674 0 00.98 5.084c.578.413 1.23.643 1.89.69l.022.01c1.819.933 3.451 2.145 5.177 3.871l1.706 1.667-9.915 11.067c-.373.373-.56.886-.56 1.4 0 .512.187.979.56 1.352l.653.653c.373.326.84.513 1.306.513.467 0 .98-.186 1.353-.56l9.904-11.085 2.876 2.876c.979.979 2.237 2.702 3.914 5.217a3.69 3.69 0 001.077 2.386c.7.7 1.633 1.073 2.612 1.073h.373c.14 0 .28-.094.373-.233a.424.424 0 000-.467l-1.352-2.285c.326-.607.933-.98 1.632-.933l1.306 2.239c.047.14.233.233.373.233.187-.047.327-.093.42-.233 1.12-1.68.653-3.919-.98-5.085zM56.77 4.072C55.278 2.626 54.159 2.16 52.9 2.02c2.658-.84 4.617-.793 6.576.093 1.12.466 1.493.84 2.472 1.82l1.68 1.678c.373.373.606.84.653 1.306.046.233.046.42.046.56 0 .513.047.886.606 1.446.187.186.467.28.7.28.28 0 .513-.094.653-.28l1.633 1.632c.093.094.14.187.14.327s-.047.233-.14.326l-3.312 3.312a.451.451 0 01-.653 0l-1.633-1.633c.187-.14.28-.373.234-.652a1.03 1.03 0 00-.28-.7c-.56-.56-.933-.607-1.446-.607-.14 0-.327 0-.56-.046-.513-.047-.933-.28-1.306-.653l-2.005-2.006c1.026-1.26.932-3.032-.187-4.151zm-14.646-1.12l.98 1.68c.093.14.233.233.373.233h.233c1.073.047 2.052-.513 2.519-1.446l.093-.233a.35.35 0 000-.42L45.297.994c.56.093 1.073.373 1.492.793.481.52.79 1.18.807 1.887a.48.48 0 00-.014.118c0 .216-.026.427-.074.63a2.86 2.86 0 01-1.185 1.656 2.822 2.822 0 01-3.125-.047 2.84 2.84 0 01-1.073-3.078zm8.302 7.743c-1.399-1.446-2.798-2.565-4.29-3.451a5.57 5.57 0 00.745-.373 3.674 3.674 0 001.446-1.82c.887 1.493 2.006 2.892 3.405 4.292l1.602 1.602-1.256 1.402-1.652-1.652zm-6.203 16.046c-.373.373-.98.42-1.353.046l-.653-.606a.92.92 0 01-.28-.653c0-.28.094-.513.327-.746l.264-.296.669.669c.093.093.186.14.326.14s.233-.047.327-.14a.451.451 0 000-.653l-.706-.706.617-.69.742.743c.093.093.186.14.326.14s.233-.047.327-.14a.451.451 0 000-.653l-.779-.779L56.376 8.994l1.959 1.96-1.925 2.153a.479.479 0 00-.152.107l-1.866 2.099a.479.479 0 00-.114.178l-10.054 11.25zm11.195-11.1l1.276-1.43 3.014 3.014c.84.887 2.286 2.006 4.385 3.405-.28.094-.56.234-.84.42-.578.362-.988.864-1.274 1.42l-.012.023a4.465 4.465 0 00-.158.345l-.005.015c-.015.036-.03.073-.043.11-.265-.39-.52-.756-.765-1.101l.625-.625a.451.451 0 000-.653.451.451 0 00-.653 0l-.52.52a39.845 39.845 0 00-.562-.745l.429-.428a.451.451 0 000-.653.45.45 0 00-.653 0l-.356.356a15.518 15.518 0 00-.95-1.056l-2.938-2.938zm12.5 9.327l-.98-1.679c-.093-.14-.233-.233-.373-.233h-.233c-1.073-.094-2.053.513-2.519 1.446l-.093.233a.35.35 0 000 .42l1.026 1.772a2.756 2.756 0 01-1.493-.793c-.472-.51-.776-1.155-.805-1.847a.484.484 0 00.012-.112 2.804 2.804 0 011.26-2.332c.466-.326.98-.466 1.539-.466.56 0 1.12.186 1.586.513.98.7 1.4 1.959 1.073 3.078z" fill="#E3B873"/></svg></svg>